<?xml version="1.0" standalone="no"?>
<!DOCTYPE svg PUBLIC "-//W3C//DTD SVG 20010904//EN"
 "http://www.w3.org/TR/2001/REC-SVG-20010904/DTD/svg10.dtd">
<svg version="1.0" xmlns="http://www.w3.org/2000/svg"
 width="398.000000pt" height="393.000000pt" viewBox="0 0 398.000000 393.000000"
 preserveAspectRatio="xMidYMid meet">

<g transform="translate(0.000000,393.000000) scale(0.100000,-0.100000)"
fill="#000000" stroke="none">
<path d="M1895 3880 c-22 -5 -67 -9 -100 -10 -47 0 -71 -7 -110 -30 -27 -16
-77 -43 -110 -61 -33 -17 -90 -57 -126 -88 -76 -64 -81 -74 -99 -243 -15 -139
-5 -334 21 -403 11 -27 26 -77 35 -109 9 -33 22 -69 30 -80 17 -25 18 -73 2
-79 -10 -4 -10 -6 0 -6 8 -1 13 -20 14 -58 l1 -58 7 65 c4 36 8 102 9 147 1
64 6 91 25 130 28 55 46 143 46 219 0 51 1 54 43 81 44 31 166 73 205 73 29 0
92 -29 92 -41 0 -5 5 -9 11 -9 7 0 22 -11 35 -25 13 -14 28 -25 34 -25 5 0 10
-7 10 -15 0 -18 16 -20 23 -2 4 9 8 9 15 -2 7 -9 12 -10 16 -2 10 16 26 13 26
-5 0 -12 6 -15 26 -10 82 21 78 22 106 -40 21 -46 24 -61 15 -76 -7 -10 -18
-18 -26 -18 -7 0 -39 -13 -70 -29 -31 -16 -68 -34 -83 -40 -33 -12 -35 -30
-12 -98 17 -50 20 -243 6 -360 -1 -7 -10 -13 -19 -13 -9 0 -25 -8 -35 -17 -14
-12 -21 -14 -30 -5 -14 14 -48 -2 -48 -23 0 -18 48 -55 71 -55 15 0 19 -8 19
-35 0 -39 5 -42 32 -18 17 15 20 15 28 3 24 -37 -7 -62 -66 -53 -20 3 -46 -3
-72 -16 -34 -17 -41 -18 -46 -6 -3 8 -15 15 -27 15 -14 0 -19 -5 -16 -14 4 -9
-2 -17 -14 -21 -10 -4 -19 -13 -19 -22 0 -8 -8 -28 -17 -44 -13 -22 -22 -27
-38 -23 -11 4 -22 11 -23 16 -2 4 -11 16 -20 25 -12 12 -13 18 -4 21 6 2 12 8
12 13 0 4 -8 5 -17 2 -12 -5 -15 -2 -10 9 4 13 -3 16 -36 16 -40 1 -41 0 -18
-12 15 -9 20 -16 12 -20 -6 -4 -11 -2 -11 5 0 6 -8 9 -20 6 -10 -3 -19 -2 -18
2 0 3 0 10 -1 14 -1 11 -31 -19 -31 -31 0 -5 -31 -39 -69 -74 -84 -80 -161
-114 -363 -163 -79 -18 -195 -52 -258 -75 -63 -23 -146 -53 -185 -66 -107 -38
-115 -49 -184 -263 -61 -190 -75 -239 -135 -466 -19 -71 -53 -191 -75 -265
-26 -85 -46 -178 -55 -251 -7 -63 -19 -126 -26 -139 -7 -13 -28 -68 -46 -124
-36 -107 -41 -158 -24 -263 6 -39 7 -77 1 -103 l-9 -40 1889 0 c1505 0 1889 3
1889 13 0 6 -5 39 -10 72 -6 33 -15 103 -20 155 -5 52 -18 124 -30 160 -11 36
-23 97 -27 135 -3 43 -14 87 -28 115 -18 34 -25 68 -29 140 -5 101 -27 183
-68 265 -14 28 -28 73 -32 100 -8 58 -43 188 -97 365 -21 69 -50 165 -64 214
-31 103 -64 146 -115 146 -17 0 -77 20 -133 44 -56 24 -132 53 -169 65 -104
31 -337 120 -403 154 -91 45 -185 118 -185 143 0 12 15 72 34 135 24 81 36
143 40 215 4 56 11 117 16 135 6 19 10 64 10 101 0 37 6 100 14 140 25 124 36
216 36 286 0 40 6 79 15 96 8 15 15 38 15 50 0 23 -60 122 -90 146 -10 8 -23
32 -30 53 -8 26 -21 42 -38 49 -59 23 -75 33 -82 53 -8 22 -99 68 -167 85 -24
6 -43 14 -43 19 0 18 -54 30 -157 35 -59 3 -126 1 -148 -4z m435 -1155 c11
-13 10 -18 -4 -28 -9 -7 -18 -22 -21 -35 -8 -45 -29 -92 -41 -92 -19 0 -35 27
-41 68 -7 50 9 79 50 91 44 13 43 13 57 -4z m-361 -461 c15 -15 13 -16 -22
-10 -36 7 -38 6 -32 -13 5 -16 2 -21 -13 -21 -16 0 -19 -5 -15 -21 11 -42 -54
-47 -90 -6 -17 20 -17 21 15 54 21 22 38 31 50 27 10 -3 18 0 18 7 0 17 70 4
89 -17z m51 19 c0 -10 -20 -40 -20 -31 0 3 -3 13 -6 22 -4 11 -1 16 10 16 9 0
16 -3 16 -7z m-435 -100 c70 -146 192 -296 267 -328 24 -11 70 -35 103 -55 33
-20 75 -42 94 -50 37 -15 46 -9 83 58 9 17 48 54 87 82 72 53 167 155 198 213
9 18 22 55 29 82 l12 50 2 -70 c3 -100 0 -126 -16 -160 -8 -16 -20 -64 -26
-106 -10 -68 -9 -83 10 -138 25 -73 21 -132 -28 -416 -16 -93 -38 -232 -50
-307 -32 -207 -90 -392 -148 -476 -31 -45 -65 -139 -58 -158 6 -16 8 -16 16
-4 17 27 10 -4 -26 -118 -20 -61 -40 -112 -45 -112 -5 0 -9 6 -9 14 0 8 -6 21
-14 29 -43 43 -144 233 -176 332 -7 22 -32 79 -56 127 -24 49 -48 107 -54 130
-6 24 -22 70 -35 103 -25 65 -70 233 -80 304 -3 23 -10 54 -15 67 -16 41 -40
153 -40 185 0 16 -7 46 -15 67 -12 27 -13 42 -5 59 5 13 15 34 21 47 6 14 23
27 38 31 50 11 136 48 148 63 9 10 22 13 44 8 32 -6 32 -6 14 14 -10 11 -33
25 -51 32 -34 12 -46 28 -21 28 6 0 2 8 -11 18 -13 10 -20 21 -16 25 12 12 26
8 18 -5 -5 -10 -4 -10 6 -1 8 7 11 15 8 19 -18 18 -73 -26 -171 -135 -27 -29
-50 -51 -53 -49 -2 3 -6 56 -8 119 -2 63 -7 190 -11 283 -6 116 -5 167 2 163
6 -4 23 -33 38 -64z m468 -45 c29 -14 36 -28 13 -28 -8 0 -17 -7 -20 -16 -4
-9 -13 -14 -21 -10 -8 3 -15 2 -15 -2 0 -11 -57 -30 -105 -36 -22 -2 -47 -7
-56 -11 -11 -4 -22 3 -33 19 -18 29 -21 46 -6 46 6 0 21 9 33 21 16 15 30 19
53 14 17 -3 42 -1 55 4 34 14 71 13 102 -1z"/>
<path d="M2273 1909 c-11 -11 4 -59 20 -59 14 0 7 -29 -10 -39 -17 -9 -17 -11
1 -24 26 -19 14 -34 -37 -48 -27 -7 -37 -14 -27 -18 17 -7 25 -31 10 -31 -5 0
-10 -5 -10 -11 0 -6 7 -8 17 -5 9 4 20 2 23 -5 10 -15 170 28 170 46 0 22 -67
159 -89 183 -23 24 -51 28 -68 11z"/>
<path d="M1848 3026 c-55 -22 -79 -24 -155 -11 -41 7 -141 -46 -148 -78 -11
-53 24 -117 63 -117 11 0 31 -13 44 -29 20 -25 59 -48 108 -64 23 -7 63 13
110 57 35 32 44 48 55 98 7 33 11 73 9 88 -3 26 -21 80 -26 80 -2 0 -29 -11
-60 -24z m-108 -234 c6 -5 -52 9 -63 15 -4 2 -5 9 -2 14 5 7 37 -7 65 -29z"/>
<path d="M1858 2623 c-1 -5 -23 -26 -48 -48 -25 -22 -51 -51 -59 -65 -37 -68
-51 -101 -51 -125 0 -14 -4 -25 -10 -25 -5 0 -10 -6 -10 -14 0 -23 53 -9 76
20 64 80 145 264 116 264 -6 0 -12 -3 -14 -7z"/>
</g>
</svg>
